<svg id="Layer_1" data-name="Layer 1" xmlns="http://www.w3.org/2000/svg" viewBox="0 0 180 180"><defs><style>.cls-1{fill:#7600e4;}.cls-2{fill:#fff;fill-rule:evenodd;}</style></defs><title>bitloops-logo-illustration</title><rect class="cls-1" width="180" height="180"/><g id="white_logo" data-name="white logo"><path class="cls-2" d="M85.75,87.8h7.5v7.7h-7.5Z"/><path id="Rectangle_1_copy" data-name="Rectangle 1 copy" class="cls-2" d="M90.05,75.8h7.5v7.7h-7.5Z"/><path id="Rectangle_1_copy_2" data-name="Rectangle 1 copy 2" class="cls-2" d="M80.35,98.8h7.5v7.7h-7.5Z"/><path id="Rectangle_1_copy_3" data-name="Rectangle 1 copy 3" class="cls-2" d="M74,108.7h7.5v7.6H74Z"/><path id="Rectangle_1_copy_4" data-name="Rectangle 1 copy 4" class="cls-2" d="M96.45,67H104v7.7h-7.5Z"/><path id="Rectangle_1_copy_5" data-name="Rectangle 1 copy 5" class="cls-2" d="M106.15,60.4h6.4V67h-6.4Z"/><path id="Rectangle_1_copy_6" data-name="Rectangle 1 copy 6" class="cls-2" d="M65.35,114.1h6.4v6.6h-6.4Z"/><path id="Rectangle_1_copy_7" data-name="Rectangle 1 copy 7" class="cls-2" d="M55.65,115.2h5.4v5.5h-5.4Z"/><path id="Rectangle_1_copy_8" data-name="Rectangle 1 copy 8" class="cls-2" d="M116.85,59.3h5.4v5.5h-5.4Z"/><path id="Rectangle_1_copy_9" data-name="Rectangle 1 copy 9" class="cls-2" d="M126.55,61.5H132V67h-5.4Z"/><path id="Rectangle_1_copy_10" data-name="Rectangle 1 copy 10" class="cls-2" d="M45,111.9h5.4v5.5H45Z"/><path id="Rectangle_1_copy_11" data-name="Rectangle 1 copy 11" class="cls-2" d="M36.35,105.4h5.4v5.5h-5.4Z"/><path id="Rectangle_1_copy_12" data-name="Rectangle 1 copy 12" class="cls-2" d="M136.15,68.1h5.4v5.5h-5.4Z"/><path id="Rectangle_1_copy_13" data-name="Rectangle 1 copy 13" class="cls-2" d="M142.65,77.9H147v4.4h-4.3Z"/><path id="Rectangle_1_copy_14" data-name="Rectangle 1 copy 14" class="cls-2" d="M32.05,95.5h4.3v4.4h-4.3Z"/><path id="Rectangle_1_copy_15" data-name="Rectangle 1 copy 15" class="cls-2" d="M31,84.5h4.3v4.4H31Z"/><path id="Rectangle_1_copy_16" data-name="Rectangle 1 copy 16" class="cls-2" d="M144.75,88.9h4.3v4.4h-4.3Z"/><path id="Rectangle_1_copy_17" data-name="Rectangle 1 copy 17" class="cls-2" d="M142.65,99.9H147v4.4h-4.3Z"/><path id="Rectangle_1_copy_18" data-name="Rectangle 1 copy 18" class="cls-2" d="M34.15,74.7h4.3v4.4h-4.3Z"/><path id="Rectangle_1_copy_20" data-name="Rectangle 1 copy 20" class="cls-2" d="M41.65,65.9H46v4.4h-4.3Z"/><path id="Rectangle_1_copy_21" data-name="Rectangle 1 copy 21" class="cls-2" d="M136.15,108.7h4.3v4.4h-4.3Z"/><path id="Rectangle_1_copy_19" data-name="Rectangle 1 copy 19" class="cls-2" d="M52.45,61.5h3.2v3.3h-3.2Z"/><path id="Rectangle_1_copy_22" data-name="Rectangle 1 copy 22" class="cls-2" d="M127.55,115.2h3.2v3.3h-3.2Z"/><path id="Rectangle_1_copy_23" data-name="Rectangle 1 copy 23" class="cls-2" d="M62.05,60.4h3.2v3.3h-3.2Z"/><path id="Rectangle_1_copy_24" data-name="Rectangle 1 copy 24" class="cls-2" d="M116.85,117.4h3.2v3.3h-3.2Z"/><path id="Rectangle_1_copy_25" data-name="Rectangle 1 copy 25" class="cls-2" d="M106.15,115.2h3.2v3.3h-3.2Z"/><path id="Rectangle_1_copy_26" data-name="Rectangle 1 copy 26" class="cls-2" d="M72.85,63.7h3.2V67h-3.2Z"/><path id="Rectangle_1_copy_27" data-name="Rectangle 1 copy 27" class="cls-2" d="M96.45,107.6h3.2v3.3h-3.2Z"/><path id="Rectangle_1_copy_28" data-name="Rectangle 1 copy 28" class="cls-2" d="M81.45,71.4h3.2v3.3h-3.2Z"/></g></svg>